<?xml version="1.0" encoding="UTF-8" standalone="no"?><svg xmlns="http://www.w3.org/2000/svg" xmlns:xlink="http://www.w3.org/1999/xlink" contentScriptType="application/ecmascript" contentStyleType="text/css" height="652px" preserveAspectRatio="none" style="width:511px;height:652px;" version="1.1" viewBox="0 0 511 652" width="511px" zoomAndPan="magnify"><defs><filter height="300%" id="fkpuxbs8x7u2u" width="300%" x="-1" y="-1"><feGaussianBlur result="blurOut" stdDeviation="2.0"/><feColorMatrix in="blurOut" result="blurOut2" type="matrix" values="0 0 0 0 0 0 0 0 0 0 0 0 0 0 0 0 0 0 .4 0"/><feOffset dx="4.0" dy="4.0" in="blurOut2" result="blurOut3"/><feBlend in="SourceGraphic" in2="blurOut3" mode="normal"/></filter></defs><g><!--MD5=[ea37f85742198962d82352bea1ca5204]
class WaterSource--><rect fill="#FEFECE" filter="url(#fkpuxbs8x7u2u)" height="60.8047" id="WaterSource" style="stroke: #A80036; stroke-width: 1.5;" width="114" x="28.5" y="8"/><ellipse cx="43.5" cy="24" fill="#B4A7E5" rx="11" ry="11" style="stroke: #A80036; stroke-width: 1.0;"/><path d="M39.4219,19.7656 L39.4219,17.6094 L46.8125,17.6094 L46.8125,19.7656 L44.3438,19.7656 L44.3438,27.8438 L46.8125,27.8438 L46.8125,30 L39.4219,30 L39.4219,27.8438 L41.8906,27.8438 L41.8906,19.7656 L39.4219,19.7656 Z "/><text fill="#000000" font-family="sans-serif" font-size="12" font-style="italic" lengthAdjust="spacingAndGlyphs" textLength="82" x="57.5" y="28.1543">WaterSource</text><line style="stroke: #A80036; stroke-width: 1.5;" x1="29.5" x2="141.5" y1="40" y2="40"/><line style="stroke: #A80036; stroke-width: 1.5;" x1="29.5" x2="141.5" y1="48" y2="48"/><ellipse cx="39.5" cy="59" fill="#84BE84" rx="3" ry="3" style="stroke: #038048; stroke-width: 1.0;"/><text fill="#000000" font-family="sans-serif" font-size="11" lengthAdjust="spacingAndGlyphs" textLength="58" x="48.5" y="62.2104">getWater()</text><!--MD5=[02421a316af3563467c2857828e52fe4]
class FoodSource--><rect fill="#FEFECE" filter="url(#fkpuxbs8x7u2u)" height="60.8047" id="FoodSource" style="stroke: #A80036; stroke-width: 1.5;" width="107" x="393" y="8"/><ellipse cx="408" cy="24" fill="#B4A7E5" rx="11" ry="11" style="stroke: #A80036; stroke-width: 1.0;"/><path d="M403.9219,19.7656 L403.9219,17.6094 L411.3125,17.6094 L411.3125,19.7656 L408.8438,19.7656 L408.8438,27.8438 L411.3125,27.8438 L411.3125,30 L403.9219,30 L403.9219,27.8438 L406.3906,27.8438 L406.3906,19.7656 L403.9219,19.7656 Z "/><text fill="#000000" font-family="sans-serif" font-size="12" font-style="italic" lengthAdjust="spacingAndGlyphs" textLength="75" x="422" y="28.1543">FoodSource</text><line style="stroke: #A80036; stroke-width: 1.5;" x1="394" x2="499" y1="40" y2="40"/><line style="stroke: #A80036; stroke-width: 1.5;" x1="394" x2="499" y1="48" y2="48"/><ellipse cx="404" cy="59" fill="#84BE84" rx="3" ry="3" style="stroke: #038048; stroke-width: 1.0;"/><text fill="#000000" font-family="sans-serif" font-size="11" lengthAdjust="spacingAndGlyphs" textLength="53" x="413" y="62.2104">getFood()</text><!--MD5=[83ce826eaffebc0e04600dc5f58145c1]
class EnergySource--><rect fill="#FEFECE" filter="url(#fkpuxbs8x7u2u)" height="60.8047" id="EnergySource" style="stroke: #A80036; stroke-width: 1.5;" width="120" x="217.5" y="8"/><ellipse cx="232.5" cy="24" fill="#B4A7E5" rx="11" ry="11" style="stroke: #A80036; stroke-width: 1.0;"/><path d="M228.4219,19.7656 L228.4219,17.6094 L235.8125,17.6094 L235.8125,19.7656 L233.3438,19.7656 L233.3438,27.8438 L235.8125,27.8438 L235.8125,30 L228.4219,30 L228.4219,27.8438 L230.8906,27.8438 L230.8906,19.7656 L228.4219,19.7656 Z "/><text fill="#000000" font-family="sans-serif" font-size="12" font-style="italic" lengthAdjust="spacingAndGlyphs" textLength="88" x="246.5" y="28.1543">EnergySource</text><line style="stroke: #A80036; stroke-width: 1.5;" x1="218.5" x2="336.5" y1="40" y2="40"/><line style="stroke: #A80036; stroke-width: 1.5;" x1="218.5" x2="336.5" y1="48" y2="48"/><ellipse cx="228.5" cy="59" fill="#84BE84" rx="3" ry="3" style="stroke: #038048; stroke-width: 1.0;"/><text fill="#000000" font-family="sans-serif" font-size="11" lengthAdjust="spacingAndGlyphs" textLength="65" x="237.5" y="62.2104">getEnergy()</text><!--MD5=[5005bba8c6d1dda988b0bcc8eba409f6]
class House--><rect fill="#FEFECE" filter="url(#fkpuxbs8x7u2u)" height="86.4141" id="House" style="stroke: #A80036; stroke-width: 1.5;" width="91" x="210" y="129"/><ellipse cx="234" cy="145" fill="#B4A7E5" rx="11" ry="11" style="stroke: #A80036; stroke-width: 1.0;"/><path d="M229.9219,140.7656 L229.9219,138.6094 L237.3125,138.6094 L237.3125,140.7656 L234.8438,140.7656 L234.8438,148.8438 L237.3125,148.8438 L237.3125,151 L229.9219,151 L229.9219,148.8438 L232.3906,148.8438 L232.3906,140.7656 L229.9219,140.7656 Z "/><text fill="#000000" font-family="sans-serif" font-size="12" font-style="italic" lengthAdjust="spacingAndGlyphs" textLength="39" x="250" y="149.1543">House</text><line style="stroke: #A80036; stroke-width: 1.5;" x1="211" x2="300" y1="161" y2="161"/><line style="stroke: #A80036; stroke-width: 1.5;" x1="211" x2="300" y1="169" y2="169"/><ellipse cx="221" cy="180" fill="#84BE84" rx="3" ry="3" style="stroke: #038048; stroke-width: 1.0;"/><text fill="#000000" font-family="sans-serif" font-size="11" lengthAdjust="spacingAndGlyphs" textLength="58" x="230" y="183.2104">getWater()</text><ellipse cx="221" cy="192.8047" fill="#84BE84" rx="3" ry="3" style="stroke: #038048; stroke-width: 1.0;"/><text fill="#000000" font-family="sans-serif" font-size="11" lengthAdjust="spacingAndGlyphs" textLength="53" x="230" y="196.0151">getFood()</text><ellipse cx="221" cy="205.6094" fill="#84BE84" rx="3" ry="3" style="stroke: #038048; stroke-width: 1.0;"/><text fill="#000000" font-family="sans-serif" font-size="11" lengthAdjust="spacingAndGlyphs" textLength="65" x="230" y="208.8198">getEnergy()</text><!--MD5=[3d814ed3f8bd99143a13575101191967]
class MidWesternHouse--><rect fill="#FEFECE" filter="url(#fkpuxbs8x7u2u)" height="124.8281" id="MidWesternHouse" style="stroke: #A80036; stroke-width: 1.5;" width="203" x="126" y="275"/><ellipse cx="167.1" cy="291" fill="#ADD1B2" rx="11" ry="11" style="stroke: #A80036; stroke-width: 1.0;"/><path d="M170.0688,296.6406 Q169.4906,296.9375 168.85,297.0781 Q168.2094,297.2344 167.5063,297.2344 Q165.0063,297.2344 163.6781,295.5938 Q162.3656,293.9375 162.3656,290.8125 Q162.3656,287.6875 163.6781,286.0313 Q165.0063,284.375 167.5063,284.375 Q168.2094,284.375 168.85,284.5313 Q169.5063,284.6875 170.0688,284.9844 L170.0688,287.7031 Q169.4438,287.125 168.85,286.8594 Q168.2563,286.5781 167.6313,286.5781 Q166.2875,286.5781 165.6,287.6563 Q164.9125,288.7188 164.9125,290.8125 Q164.9125,292.9063 165.6,293.9844 Q166.2875,295.0469 167.6313,295.0469 Q168.2563,295.0469 168.85,294.7813 Q169.4438,294.5 170.0688,293.9219 L170.0688,296.6406 Z "/><text fill="#000000" font-family="sans-serif" font-size="12" lengthAdjust="spacingAndGlyphs" textLength="113" x="186.9" y="295.1543">MidWesternHouse</text><line style="stroke: #A80036; stroke-width: 1.5;" x1="127" x2="328" y1="307" y2="307"/><rect fill="none" height="6" style="stroke: #C82930; stroke-width: 1.0;" width="6" x="134" y="315"/><text fill="#000000" font-family="sans-serif" font-size="11" lengthAdjust="spacingAndGlyphs" textLength="163" x="146" y="321.2104">WaterSource[] waterSources</text><rect fill="none" height="6" style="stroke: #C82930; stroke-width: 1.0;" width="6" x="134" y="327.8047"/><text fill="#000000" font-family="sans-serif" font-size="11" lengthAdjust="spacingAndGlyphs" textLength="151" x="146" y="334.0151">FoodSource[] foodSources</text><rect fill="none" height="6" style="stroke: #C82930; stroke-width: 1.0;" width="6" x="134" y="340.6094"/><text fill="#000000" font-family="sans-serif" font-size="11" lengthAdjust="spacingAndGlyphs" textLength="177" x="146" y="346.8198">EnergySource[] energySources</text><line style="stroke: #A80036; stroke-width: 1.5;" x1="127" x2="328" y1="353.4141" y2="353.4141"/><ellipse cx="137" cy="364.4141" fill="#84BE84" rx="3" ry="3" style="stroke: #038048; stroke-width: 1.0;"/><text fill="#000000" font-family="sans-serif" font-size="11" lengthAdjust="spacingAndGlyphs" textLength="58" x="146" y="367.6245">getWater()</text><ellipse cx="137" cy="377.2188" fill="#84BE84" rx="3" ry="3" style="stroke: #038048; stroke-width: 1.0;"/><text fill="#000000" font-family="sans-serif" font-size="11" lengthAdjust="spacingAndGlyphs" textLength="53" x="146" y="380.4292">getFood()</text><ellipse cx="137" cy="390.0234" fill="#84BE84" rx="3" ry="3" style="stroke: #038048; stroke-width: 1.0;"/><text fill="#000000" font-family="sans-serif" font-size="11" lengthAdjust="spacingAndGlyphs" textLength="65" x="146" y="393.2339">getEnergy()</text><!--MD5=[4660bf21580a37796dc4bc2b4c0749bf]
class RainWaterHarvester--><rect fill="#FEFECE" filter="url(#fkpuxbs8x7u2u)" height="60.8047" id="RainWaterHarvester" style="stroke: #A80036; stroke-width: 1.5;" width="157" x="6" y="460"/><ellipse cx="21" cy="476" fill="#FF7700" rx="11" ry="11" style="stroke: #A80036; stroke-width: 1.0;"/><path d="M16.7188,469.6094 L19.6406,469.6094 L21.1094,475.0469 L22.5781,469.6094 L25.5156,469.6094 L25.5156,482 L23.4063,482 L23.4063,472.0781 L22.0938,477.5 L20.1563,477.5 L18.8281,472.0781 L18.8281,482 L16.7188,482 L16.7188,469.6094 Z "/><text fill="#000000" font-family="sans-serif" font-size="12" lengthAdjust="spacingAndGlyphs" textLength="125" x="35" y="480.1543">RainWaterHarvester</text><line style="stroke: #A80036; stroke-width: 1.5;" x1="7" x2="162" y1="492" y2="492"/><line style="stroke: #A80036; stroke-width: 1.5;" x1="7" x2="162" y1="500" y2="500"/><ellipse cx="17" cy="511" fill="#84BE84" rx="3" ry="3" style="stroke: #038048; stroke-width: 1.0;"/><text fill="#000000" font-family="sans-serif" font-size="11" lengthAdjust="spacingAndGlyphs" textLength="58" x="26" y="514.2104">getWater()</text><!--MD5=[05588c75be99b54adeb1c827af2a85b5]
class AquaponicGreenHouse--><rect fill="#FEFECE" filter="url(#fkpuxbs8x7u2u)" height="60.8047" id="AquaponicGreenHouse" style="stroke: #A80036; stroke-width: 1.5;" width="176" x="252.5" y="581"/><ellipse cx="267.5" cy="597" fill="#FF7700" rx="11" ry="11" style="stroke: #A80036; stroke-width: 1.0;"/><path d="M263.2188,590.6094 L266.1406,590.6094 L267.6094,596.0469 L269.0781,590.6094 L272.0156,590.6094 L272.0156,603 L269.9063,603 L269.9063,593.0781 L268.5938,598.5 L266.6563,598.5 L265.3281,593.0781 L265.3281,603 L263.2188,603 L263.2188,590.6094 Z "/><text fill="#000000" font-family="sans-serif" font-size="12" lengthAdjust="spacingAndGlyphs" textLength="144" x="281.5" y="601.1543">AquaponicGreenHouse</text><line style="stroke: #A80036; stroke-width: 1.5;" x1="253.5" x2="427.5" y1="613" y2="613"/><line style="stroke: #A80036; stroke-width: 1.5;" x1="253.5" x2="427.5" y1="621" y2="621"/><ellipse cx="263.5" cy="632" fill="#84BE84" rx="3" ry="3" style="stroke: #038048; stroke-width: 1.0;"/><text fill="#000000" font-family="sans-serif" font-size="11" lengthAdjust="spacingAndGlyphs" textLength="53" x="272.5" y="635.2104">getFood()</text><!--MD5=[1510f3333d3f8e229a4f056ce54d1302]
class SolarPanelArray--><rect fill="#FEFECE" filter="url(#fkpuxbs8x7u2u)" height="60.8047" id="SolarPanelArray" style="stroke: #A80036; stroke-width: 1.5;" width="131" x="275" y="460"/><ellipse cx="290" cy="476" fill="#FF7700" rx="11" ry="11" style="stroke: #A80036; stroke-width: 1.0;"/><path d="M285.7188,469.6094 L288.6406,469.6094 L290.1094,475.0469 L291.5781,469.6094 L294.5156,469.6094 L294.5156,482 L292.4063,482 L292.4063,472.0781 L291.0938,477.5 L289.1563,477.5 L287.8281,472.0781 L287.8281,482 L285.7188,482 L285.7188,469.6094 Z "/><text fill="#000000" font-family="sans-serif" font-size="12" lengthAdjust="spacingAndGlyphs" textLength="99" x="304" y="480.1543">SolarPanelArray</text><line style="stroke: #A80036; stroke-width: 1.5;" x1="276" x2="405" y1="492" y2="492"/><line style="stroke: #A80036; stroke-width: 1.5;" x1="276" x2="405" y1="500" y2="500"/><ellipse cx="286" cy="511" fill="#84BE84" rx="3" ry="3" style="stroke: #038048; stroke-width: 1.0;"/><text fill="#000000" font-family="sans-serif" font-size="11" lengthAdjust="spacingAndGlyphs" textLength="65" x="295" y="514.2104">getEnergy()</text><!--MD5=[c16b3465c91be97b030ca6fc61ccfbc1]
reverse link WaterSource to House--><path d="M140.4942,81.6866 C162.8667,99.2556 188.4209,119.3232 209.7501,136.0729 " fill="none" id="WaterSource&lt;-House" style="stroke: #A80036; stroke-width: 1.0;"/><polygon fill="none" points="135.9077,86.9853,124.5014,69.1276,144.5544,75.9746,135.9077,86.9853" style="stroke: #A80036; stroke-width: 1.0;"/><!--MD5=[1f0f462fba8703d40244bd53447f7ddc]
reverse link FoodSource to House--><path d="M386.2206,80.6324 C358.6817,99.8809 326.5986,122.3054 301.1089,140.1215 " fill="none" id="FoodSource&lt;-House" style="stroke: #A80036; stroke-width: 1.0;"/><polygon fill="none" points="382.2778,74.8479,402.6807,69.1276,390.2982,86.3228,382.2778,74.8479" style="stroke: #A80036; stroke-width: 1.0;"/><!--MD5=[59b64291f587a8c95acb3cc08ff34d87]
reverse link EnergySource to House--><path d="M269.1358,89.2557 C266.984,102.3131 264.6892,116.2382 262.6079,128.8681 " fill="none" id="EnergySource&lt;-House" style="stroke: #A80036; stroke-width: 1.0;"/><polygon fill="none" points="262.2938,87.7232,272.4528,69.1276,276.1075,89.9997,262.2938,87.7232" style="stroke: #A80036; stroke-width: 1.0;"/><!--MD5=[413195be38c1781c553d0346787f199e]
reverse link House to MidWesternHouse--><path d="M244.8745,234.804 C242.6635,247.8729 240.333,261.6477 238.1221,274.7158 " fill="none" id="House&lt;-MidWesternHouse" style="stroke: #A80036; stroke-width: 1.0; stroke-dasharray: 7.0,7.0;"/><polygon fill="none" points="237.9781,233.6032,248.2164,215.0511,251.782,235.9386,237.9781,233.6032" style="stroke: #A80036; stroke-width: 1.0;"/><!--MD5=[81bcf2431406eab42b350dfd8c820145]
reverse link WaterSource to RainWaterHarvester--><path d="M85.3878,89.2234 C85.1791,183.526 84.7374,383.1995 84.568,459.7453 " fill="none" id="WaterSource&lt;-RainWaterHarvester" style="stroke: #A80036; stroke-width: 1.0; stroke-dasharray: 7.0,7.0;"/><polygon fill="none" points="78.3877,89.1969,85.4321,69.2124,92.3877,89.2279,78.3877,89.1969" style="stroke: #A80036; stroke-width: 1.0;"/><!--MD5=[611fd2944546ce603370564b38607106]
reverse link FoodSource to AquaponicGreenHouse--><path d="M454.9631,89.1113 C467.8113,179.7598 484.743,374.068 423.5,521 C413.9036,544.0234 395.7421,564.9054 378.8489,580.7943 " fill="none" id="FoodSource&lt;-AquaponicGreenHouse" style="stroke: #A80036; stroke-width: 1.0; stroke-dasharray: 7.0,7.0;"/><polygon fill="none" points="448.0115,89.9562,451.9543,69.1367,461.8553,87.8709,448.0115,89.9562" style="stroke: #A80036; stroke-width: 1.0;"/><!--MD5=[1633072e96e54615242f4c8c9763b87f]
reverse link EnergySource to SolarPanelArray--><path d="M302.2195,87.4685 C308.1962,100.7047 314.1163,115.1927 318.5,129 C355.1416,244.4085 350.5073,278.9807 346.5,400 C345.8382,419.9868 344.3564,442.4159 343.031,459.945 " fill="none" id="EnergySource&lt;-SolarPanelArray" style="stroke: #A80036; stroke-width: 1.0; stroke-dasharray: 7.0,7.0;"/><polygon fill="none" points="295.8019,90.2713,293.595,69.1968,308.4624,84.2953,295.8019,90.2713" style="stroke: #A80036; stroke-width: 1.0;"/><!--MD5=[80e0115255c03e7a35dc9b39249662d9]
link MidWesternHouse to RainWaterHarvester--><path d="M168.9238,400.1724 C150.9967,419.3531 131.9484,439.7335 116.4911,456.2718 " fill="none" id="MidWesternHouse-&gt;RainWaterHarvester" style="stroke: #A80036; stroke-width: 1.0; stroke-dasharray: 7.0,7.0;"/><polygon fill="#A80036" points="113.0476,459.956,122.1154,456.1122,116.4618,456.3031,116.2708,450.6495,113.0476,459.956" style="stroke: #A80036; stroke-width: 1.0;"/><!--MD5=[050bcd84636459384e4e40e2595a55f2]
link MidWesternHouse to AquaponicGreenHouse--><path d="M228.8582,400.0922 C231.7742,436.8812 239.237,483.397 257.5,521 C267.6317,541.8609 284.1396,561.334 299.7756,576.832 " fill="none" id="MidWesternHouse-&gt;AquaponicGreenHouse" style="stroke: #A80036; stroke-width: 1.0; stroke-dasharray: 7.0,7.0;"/><polygon fill="#A80036" points="303.7276,580.685,300.0755,571.5383,300.1474,577.1947,294.491,577.2666,303.7276,580.685" style="stroke: #A80036; stroke-width: 1.0;"/><!--MD5=[9ef66ac137c0fa1ce64a997d70d19122]
link MidWesternHouse to SolarPanelArray--><path d="M273.7875,400.1724 C287.8346,419.1919 302.7529,439.391 314.9118,455.854 " fill="none" id="MidWesternHouse-&gt;SolarPanelArray" style="stroke: #A80036; stroke-width: 1.0; stroke-dasharray: 7.0,7.0;"/><polygon fill="#A80036" points="317.9414,459.956,315.8122,450.34,314.971,455.934,309.377,455.0927,317.9414,459.956" style="stroke: #A80036; stroke-width: 1.0;"/><!--MD5=[63064aebccc67da19ab66850848d3afb]
@startuml mid-western-house-implementation

interface WaterSource {
   + getWater()
}

interface FoodSource {
   + getFood()
}

interface EnergySource {
   + getEnergy()
}

interface House extends WaterSource, FoodSource, EnergySource {
   + getWater()
   + getFood()
   + getEnergy()
}

class MidWesternHouse implements House {
   - WaterSource[] waterSources
   - FoodSource[] foodSources
   - EnergySource[] energySources
   
   + getWater()
   + getFood()
   + getEnergy()
}

' Responsible for the collection, storage, and purification of rain-water
class RainWaterHarvester  << (M,#FF7700) >> implements WaterSource {
   + getWater()
}


class AquaponicGreenHouse << (M,#FF7700) >> implements FoodSource {
   + getFood()
}


class SolarPanelArray << (M,#FF7700) >> implements EnergySource {
   + getEnergy()
}

MidWesternHouse ..> RainWaterHarvester
MidWesternHouse ..-> AquaponicGreenHouse
MidWesternHouse ..> SolarPanelArray
@enduml

@startuml mid-western-house-implementation

interface WaterSource {
   + getWater()
}

interface FoodSource {
   + getFood()
}

interface EnergySource {
   + getEnergy()
}

interface House extends WaterSource, FoodSource, EnergySource {
   + getWater()
   + getFood()
   + getEnergy()
}

class MidWesternHouse implements House {
   - WaterSource[] waterSources
   - FoodSource[] foodSources
   - EnergySource[] energySources
   
   + getWater()
   + getFood()
   + getEnergy()
}

class RainWaterHarvester  << (M,#FF7700) >> implements WaterSource {
   + getWater()
}


class AquaponicGreenHouse << (M,#FF7700) >> implements FoodSource {
   + getFood()
}


class SolarPanelArray << (M,#FF7700) >> implements EnergySource {
   + getEnergy()
}

MidWesternHouse ..> RainWaterHarvester
MidWesternHouse ..-> AquaponicGreenHouse
MidWesternHouse ..> SolarPanelArray
@enduml

PlantUML version 1.2020.10(Sun May 17 04:35:57 CDT 2020)
(GPL source distribution)
Java Runtime: OpenJDK Runtime Environment
JVM: OpenJDK 64-Bit Server VM
Java Version: 11.0.6+10-post-Ubuntu-1ubuntu118.04.1
Operating System: Linux
Default Encoding: UTF-8
Language: en
Country: US
--></g></svg>