<?xml version="1.0" encoding="UTF-8" standalone="no"?><svg xmlns="http://www.w3.org/2000/svg" xmlns:xlink="http://www.w3.org/1999/xlink" contentScriptType="application/ecmascript" contentStyleType="text/css" height="492px" preserveAspectRatio="none" style="width:412px;height:492px;" version="1.1" viewBox="0 0 412 492" width="412px" zoomAndPan="magnify"><defs><filter height="300%" id="fczsgqebfl635" width="300%" x="-1" y="-1"><feGaussianBlur result="blurOut" stdDeviation="2.0"/><feColorMatrix in="blurOut" result="blurOut2" type="matrix" values="0 0 0 0 0 0 0 0 0 0 0 0 0 0 0 0 0 0 .4 0"/><feOffset dx="4.0" dy="4.0" in="blurOut2" result="blurOut3"/><feBlend in="SourceGraphic" in2="blurOut3" mode="normal"/></filter></defs><g><!--MD5=[5005bba8c6d1dda988b0bcc8eba409f6]
class House--><rect fill="#FEFECE" filter="url(#fczsgqebfl635)" height="86.4141" id="House" style="stroke: #A80036; stroke-width: 1.5;" width="77" x="178" y="8"/><ellipse cx="195.7" cy="24" fill="#B4A7E5" rx="11" ry="11" style="stroke: #A80036; stroke-width: 1.0;"/><path d="M191.6219,19.7656 L191.6219,17.6094 L199.0125,17.6094 L199.0125,19.7656 L196.5438,19.7656 L196.5438,27.8438 L199.0125,27.8438 L199.0125,30 L191.6219,30 L191.6219,27.8438 L194.0906,27.8438 L194.0906,19.7656 L191.6219,19.7656 Z "/><text fill="#000000" font-family="sans-serif" font-size="12" font-style="italic" lengthAdjust="spacingAndGlyphs" textLength="39" x="210.3" y="28.1543">House</text><line style="stroke: #A80036; stroke-width: 1.5;" x1="179" x2="254" y1="40" y2="40"/><line style="stroke: #A80036; stroke-width: 1.5;" x1="179" x2="254" y1="48" y2="48"/><text fill="#000000" font-family="sans-serif" font-size="11" lengthAdjust="spacingAndGlyphs" textLength="58" x="184" y="62.2104">getWater()</text><text fill="#000000" font-family="sans-serif" font-size="11" lengthAdjust="spacingAndGlyphs" textLength="53" x="184" y="75.0151">getFood()</text><text fill="#000000" font-family="sans-serif" font-size="11" lengthAdjust="spacingAndGlyphs" textLength="65" x="184" y="87.8198">getEnergy()</text><!--MD5=[3d814ed3f8bd99143a13575101191967]
class MidWesternHouse--><rect fill="#FEFECE" filter="url(#fczsgqebfl635)" height="86.4141" id="MidWesternHouse" style="stroke: #A80036; stroke-width: 1.5;" width="145" x="144" y="154"/><ellipse cx="159" cy="170" fill="#ADD1B2" rx="11" ry="11" style="stroke: #A80036; stroke-width: 1.0;"/><path d="M161.9688,175.6406 Q161.3906,175.9375 160.75,176.0781 Q160.1094,176.2344 159.4063,176.2344 Q156.9063,176.2344 155.5781,174.5938 Q154.2656,172.9375 154.2656,169.8125 Q154.2656,166.6875 155.5781,165.0313 Q156.9063,163.375 159.4063,163.375 Q160.1094,163.375 160.75,163.5313 Q161.4063,163.6875 161.9688,163.9844 L161.9688,166.7031 Q161.3438,166.125 160.75,165.8594 Q160.1563,165.5781 159.5313,165.5781 Q158.1875,165.5781 157.5,166.6563 Q156.8125,167.7188 156.8125,169.8125 Q156.8125,171.9063 157.5,172.9844 Q158.1875,174.0469 159.5313,174.0469 Q160.1563,174.0469 160.75,173.7813 Q161.3438,173.5 161.9688,172.9219 L161.9688,175.6406 Z "/><text fill="#000000" font-family="sans-serif" font-size="12" lengthAdjust="spacingAndGlyphs" textLength="113" x="173" y="174.1543">MidWesternHouse</text><line style="stroke: #A80036; stroke-width: 1.5;" x1="145" x2="288" y1="186" y2="186"/><line style="stroke: #A80036; stroke-width: 1.5;" x1="145" x2="288" y1="194" y2="194"/><text fill="#000000" font-family="sans-serif" font-size="11" lengthAdjust="spacingAndGlyphs" textLength="58" x="150" y="208.2104">getWater()</text><text fill="#000000" font-family="sans-serif" font-size="11" lengthAdjust="spacingAndGlyphs" textLength="53" x="150" y="221.0151">getFood()</text><text fill="#000000" font-family="sans-serif" font-size="11" lengthAdjust="spacingAndGlyphs" textLength="65" x="150" y="233.8198">getEnergy()</text><!--MD5=[4660bf21580a37796dc4bc2b4c0749bf]
class RainWaterHarvester--><rect fill="#FEFECE" filter="url(#fczsgqebfl635)" height="60.8047" id="RainWaterHarvester" style="stroke: #A80036; stroke-width: 1.5;" width="157" x="6" y="300"/><ellipse cx="21" cy="316" fill="#FF7700" rx="11" ry="11" style="stroke: #A80036; stroke-width: 1.0;"/><path d="M16.7188,309.6094 L19.6406,309.6094 L21.1094,315.0469 L22.5781,309.6094 L25.5156,309.6094 L25.5156,322 L23.4063,322 L23.4063,312.0781 L22.0938,317.5 L20.1563,317.5 L18.8281,312.0781 L18.8281,322 L16.7188,322 L16.7188,309.6094 Z "/><text fill="#000000" font-family="sans-serif" font-size="12" lengthAdjust="spacingAndGlyphs" textLength="125" x="35" y="320.1543">RainWaterHarvester</text><line style="stroke: #A80036; stroke-width: 1.5;" x1="7" x2="162" y1="332" y2="332"/><line style="stroke: #A80036; stroke-width: 1.5;" x1="7" x2="162" y1="340" y2="340"/><text fill="#000000" font-family="sans-serif" font-size="11" lengthAdjust="spacingAndGlyphs" textLength="58" x="12" y="354.2104">getWater()</text><!--MD5=[05588c75be99b54adeb1c827af2a85b5]
class AquaponicGreenHouse--><rect fill="#FEFECE" filter="url(#fczsgqebfl635)" height="60.8047" id="AquaponicGreenHouse" style="stroke: #A80036; stroke-width: 1.5;" width="176" x="128.5" y="421"/><ellipse cx="143.5" cy="437" fill="#FF7700" rx="11" ry="11" style="stroke: #A80036; stroke-width: 1.0;"/><path d="M139.2188,430.6094 L142.1406,430.6094 L143.6094,436.0469 L145.0781,430.6094 L148.0156,430.6094 L148.0156,443 L145.9063,443 L145.9063,433.0781 L144.5938,438.5 L142.6563,438.5 L141.3281,433.0781 L141.3281,443 L139.2188,443 L139.2188,430.6094 Z "/><text fill="#000000" font-family="sans-serif" font-size="12" lengthAdjust="spacingAndGlyphs" textLength="144" x="157.5" y="441.1543">AquaponicGreenHouse</text><line style="stroke: #A80036; stroke-width: 1.5;" x1="129.5" x2="303.5" y1="453" y2="453"/><line style="stroke: #A80036; stroke-width: 1.5;" x1="129.5" x2="303.5" y1="461" y2="461"/><text fill="#000000" font-family="sans-serif" font-size="11" lengthAdjust="spacingAndGlyphs" textLength="53" x="134.5" y="475.2104">getFood()</text><!--MD5=[1510f3333d3f8e229a4f056ce54d1302]
class SolarPanelArray--><rect fill="#FEFECE" filter="url(#fczsgqebfl635)" height="60.8047" id="SolarPanelArray" style="stroke: #A80036; stroke-width: 1.5;" width="131" x="270" y="300"/><ellipse cx="285" cy="316" fill="#FF7700" rx="11" ry="11" style="stroke: #A80036; stroke-width: 1.0;"/><path d="M280.7188,309.6094 L283.6406,309.6094 L285.1094,315.0469 L286.5781,309.6094 L289.5156,309.6094 L289.5156,322 L287.4063,322 L287.4063,312.0781 L286.0938,317.5 L284.1563,317.5 L282.8281,312.0781 L282.8281,322 L280.7188,322 L280.7188,309.6094 Z "/><text fill="#000000" font-family="sans-serif" font-size="12" lengthAdjust="spacingAndGlyphs" textLength="99" x="299" y="320.1543">SolarPanelArray</text><line style="stroke: #A80036; stroke-width: 1.5;" x1="271" x2="400" y1="332" y2="332"/><line style="stroke: #A80036; stroke-width: 1.5;" x1="271" x2="400" y1="340" y2="340"/><text fill="#000000" font-family="sans-serif" font-size="11" lengthAdjust="spacingAndGlyphs" textLength="65" x="276" y="354.2104">getEnergy()</text><!--MD5=[413195be38c1781c553d0346787f199e]
reverse link House to MidWesternHouse--><path d="M216.5,114.3278 C216.5,127.6494 216.5,141.4083 216.5,153.7878 " fill="none" id="House&lt;-MidWesternHouse" style="stroke: #A80036; stroke-width: 1.0; stroke-dasharray: 7.0,7.0;"/><polygon fill="none" points="209.5001,114.0152,216.5,94.0152,223.5001,114.0151,209.5001,114.0152" style="stroke: #A80036; stroke-width: 1.0;"/><!--MD5=[80e0115255c03e7a35dc9b39249662d9]
link MidWesternHouse to RainWaterHarvester--><path d="M173.6434,240.3436 C155.8668,258.3222 135.5255,278.8947 118.7666,295.844 " fill="none" id="MidWesternHouse-&gt;RainWaterHarvester" style="stroke: #A80036; stroke-width: 1.0; stroke-dasharray: 7.0,7.0;"/><polygon fill="#A80036" points="115.0283,299.6248,124.2005,296.0373,118.5438,296.0693,118.5118,290.4126,115.0283,299.6248" style="stroke: #A80036; stroke-width: 1.0;"/><!--MD5=[050bcd84636459384e4e40e2595a55f2]
link MidWesternHouse to AquaponicGreenHouse--><path d="M216.5,240.1725 C216.5,289.6049 216.5,369.6769 216.5,415.759 " fill="none" id="MidWesternHouse-&gt;AquaponicGreenHouse" style="stroke: #A80036; stroke-width: 1.0; stroke-dasharray: 7.0,7.0;"/><polygon fill="#A80036" points="216.5,420.9318,220.5,411.9318,216.5,415.9318,212.5,411.9318,216.5,420.9318" style="stroke: #A80036; stroke-width: 1.0;"/><!--MD5=[9ef66ac137c0fa1ce64a997d70d19122]
link MidWesternHouse to SolarPanelArray--><path d="M255.1359,240.3436 C271.1617,258.3222 289.4997,278.8947 304.6081,295.844 " fill="none" id="MidWesternHouse-&gt;SolarPanelArray" style="stroke: #A80036; stroke-width: 1.0; stroke-dasharray: 7.0,7.0;"/><polygon fill="#A80036" points="307.9783,299.6248,304.9756,290.2448,304.6513,295.8924,299.0037,295.568,307.9783,299.6248" style="stroke: #A80036; stroke-width: 1.0;"/><!--MD5=[581ca0ca09a7eb8f69522081c0a8b7ad]
@startuml mid-western-house-implementation
interface House {
   getWater()
   getFood()
   getEnergy()
}

class MidWesternHouse implements House {
   getWater()
   getFood()
   getEnergy()
}

' Responsible for the collection, storage, and purification of rain-water
class RainWaterHarvester << (M,#FF7700) >> {
   getWater()
}


class AquaponicGreenHouse << (M,#FF7700) >> {
   getFood()
}


class SolarPanelArray << (M,#FF7700) >> {
   getEnergy()
}

MidWesternHouse ..> RainWaterHarvester
MidWesternHouse ..-> AquaponicGreenHouse
MidWesternHouse ..> SolarPanelArray
@enduml

@startuml mid-western-house-implementation
interface House {
   getWater()
   getFood()
   getEnergy()
}

class MidWesternHouse implements House {
   getWater()
   getFood()
   getEnergy()
}

class RainWaterHarvester << (M,#FF7700) >> {
   getWater()
}


class AquaponicGreenHouse << (M,#FF7700) >> {
   getFood()
}


class SolarPanelArray << (M,#FF7700) >> {
   getEnergy()
}

MidWesternHouse ..> RainWaterHarvester
MidWesternHouse ..-> AquaponicGreenHouse
MidWesternHouse ..> SolarPanelArray
@enduml

PlantUML version 1.2020.10(Sun May 17 04:35:57 CDT 2020)
(GPL source distribution)
Java Runtime: OpenJDK Runtime Environment
JVM: OpenJDK 64-Bit Server VM
Java Version: 11.0.6+10-post-Ubuntu-1ubuntu118.04.1
Operating System: Linux
Default Encoding: UTF-8
Language: en
Country: US
--></g></svg>